# AST/ASF file generated using VICON BodyLanguage
# -----------------------------------------------
:version 1.10
:name VICON
:units
  mass 1.0
  length 0.45
  angle deg
:documentation
   .ast/.asf automatically generated from VICON data using
   VICON BodyBuilder and BodyLanguage model FoxedUp or BRILLIANT.MOD
:root
   order TX TY TZ RX RY RZ
   axis XYZ
   position 0 0 0  
   orientation 0 0 0 
:bonedata
  begin
     id 1 
     name lhipjoint
     direction 0.541323 -0.757556 0.364798 
     length 2.47576 
     axis 0 0 0  XYZ
  end
  begin
     id 2 
     name lfemur
     direction 0.34202 -0.939693 0  
     length 7.46493  
     axis 0 0 20  XYZ
    dof rx ry rz
    limits (-160.0 20.0)
           (-70.0 70.0)
           (-60.0 70.0)
  end
  begin
     id 3 
     name ltibia
     direction 0.34202 -0.939693 0   
     length 7.73805   
     axis 0 0 20   XYZ
    dof rx
    limits (-10.0 170.0)
  end
  begin
     id 4 
     name lfoot
     direction 0.107174 -0.294458 0.949636   
     length 2.25864   
     axis -90 7.62852e-016 20   XYZ
    dof rx rz
    limits (-45.0 90.0)
           (-70.0 20.0)
  end
  begin
     id 5 
     name ltoes
     direction 1.53606e-011 -4.21934e-011 1   
     length 1.12451   
     axis -90 7.62852e-016 20   XYZ
    dof rx
    limits (-90.0 20.0)
  end
  begin
     id 6 
     name rhipjoint
     direction -0.524745 -0.766967 0.36933   
     length 2.44538  
     axis 0 0 0  XYZ 
  end
  begin
     id 7 
     name rfemur
     direction -0.34202 -0.939693 0   
     length 7.61604   
     axis 0 0 -20   XYZ
    dof rx ry rz
    limits (-160.0 20.0)
           (-70.0 70.0)
           (-70.0 60.0)
  end
  begin
     id 8 
     name rtibia
     direction -0.34202 -0.939693 0   
     length 7.61056   
     axis 0 0 -20   XYZ
    dof rx
    limits (-10.0 170.0)
 end
 begin
     id 9 
     name rfoot
     direction -0.12616 -0.346623 0.929482   
     length 2.46372  
     axis -90 -7.62852e-016 -20   XYZ
    dof rx rz
    limits (-45.0 90.0)
           (-20.0 70.0)
  end
  begin
     id 10 
     name rtoes
     direction -1.53531e-011 -4.22004e-011 1   
     length 1.21611   
     axis -90 -7.62852e-016 -20   XYZ
    dof rx
    limits (-90.0 20.0)
  end
  begin
     id 11 
     name lowerback
     direction -0.000778023 0.997293 -0.0735223   
     length 2.06139   
     axis 0 0 0   XYZ
    dof rx ry rz
    limits (-20.0 45.0)
           (-30.0 30.0)
           (-30.0 30.0)
  end
  begin
     id 12 
     name upperback
     direction 0.0222598 0.999722 -0.0078355   
     length 2.06383   
     axis 0 0 0   XYZ
    dof rx ry rz
    limits (-20.0 45.0)
           (-30.0 30.0)
           (-30.0 30.0)
  end
  begin
     id 13 
     name thorax
     direction 0.0219654 0.999405 0.0265994   
     length 2.07163   
     axis 0 0 0   XYZ
    dof rx ry rz
    limits (-20.0 45.0)
           (-30.0 30.0)
           (-30.0 30.0)
  end
  begin
     id 14 
     name lowerneck
     direction 0.0213282 0.988147 0.15202   
     length 1.75969   
     axis 0 0 0   XYZ
    dof rx ry rz
    limits (-20.0 45.0)
           (-30.0 30.0)
           (-30.0 30.0)
  end
  begin
     id 15 
     name upperneck
     direction -0.0546456 0.982624 -0.177379   
     length 1.79244   
     axis 0 0 0   XYZ
    dof rx ry rz
    limits (-20.0 45.0)
           (-30.0 30.0)
           (-30.0 30.0)
  end
  begin
     id 16
     name head
     direction -0.0199987 0.996855 -0.076686  
     length 1.80555  
     axis 0 0 0   XYZ
    dof rx ry rz
    limits (-20.0 45.0)
           (-30.0 30.0)
           (-30.0 30.0)
  end
  begin
     id 17 
     name lclavicle
     direction 0.929565 0.363219 -0.063096  
     length 3.55722  
     axis 0 0 0   XYZ
    dof ry rz
    limits (-20.0 10.0)
           (0.0 20.0)
  end
  begin
     id 18 
     name lhumerus
     direction 1 -4.48993e-011 -2.36203e-027   
     length 4.92785   
     axis 180 -30 -90   XYZ
    dof rx ry rz
    limits (-60.0 90.0)
           (-90.0 90.0)
           (-90.0 90.0)
  end
  begin
     id 19
     name lradius
     direction 1 -4.48947e-011 2.02997e-027   
     length 3.44052   
     axis 180 -30 -90   XYZ
    dof rx
    limits (-10.0 170.0)
  end
  begin
     id 20
     name lwrist
     direction 1 -4.48962e-011 1.45991e-027   
     length 1.72026   
     axis 1.49639e-024 90 90   XYZ
    dof ry
    limits (-180.0 0.0)
 end
  begin
     id 21 
     name lhand
     direction 1 -4.48984e-011 2.91906e-027   
     length 0.654326   
     axis -1.863e-015 90 90   XYZ
    dof rx rz
    limits (-90.0 90.0)
           (-45.0 45.0)
  end
  begin
     id 22 
     name lfingers
     direction 1 -4.48961e-011 5.83968e-027   
     length 0.527534   
     axis -3.72598e-015 90 90   XYZ
    dof rx
    limits (0.0 90.0)
  end
  begin
     id 23
     name lthumb
     direction 0.707107 -6.34963e-011 0.707107   
     length 0.757437   
     axis -90 45 -6.68868e-015   XYZ
    dof rx rz
    limits (-45.0 45.0)
           (-45.0 45.0)
  end
  begin
     id 24 
     name rclavicle
     direction -0.902944 0.422599 -0.0781198   
     length 3.54432  
     axis 0 0 0   XYZ 
    dof ry rz
    limits (-10.0 20.0)
           (-20.0 0.0)
  end
  begin
     id 25 
     name rhumerus
     direction -1 -4.48953e-011 -4.75835e-028  
     length 5.09181   
     axis 180 30 90   XYZ
    dof rx ry rz
    limits (-90.0 60.0)
           (-90.0 90.0)
           (-90.0 90.0)
  end
  begin
     id 26 
     name rradius
     direction -1 -4.48986e-011 -3.25889e-027   
     length 3.49865   
     axis 180 30 90   XYZ
    dof rx
    limits (-10.0 170.0)
  end
  begin
     id 27 
     name rwrist
     direction -1 -4.48963e-011 1.45989e-027   
     length 1.74933   
     axis 1.49639e-024 -90 -90   XYZ
    dof ry
    limits (-180.0 0.0)
  end
  begin
     id 28
     name rhand
     direction -1 -4.49003e-011 2.91844e-027   
     length 0.66641   
     axis -1.863e-015 -90 -90   XYZ
    dof rx rz
    limits (-90.0 90.0)
           (-45.0 45.0)
  end
  begin
     id 29
     name rfingers
     direction -1 -4.48973e-011 5.83886e-027   
     length 0.537277   
     axis -3.72598e-015 -90 -90   XYZ
    dof rx
    limits (0.0 90.0)
  end
  begin
     id 30
     name rthumb
     direction -0.707107 -6.34976e-011 0.707107   
     length 0.771425   
     axis -90 -45 6.68868e-015   XYZ
    dof rx rz
    limits (-45.0 45.0)
           (-45.0 45.0)
  end
:hierarchy
  begin
    root lhipjoint rhipjoint lowerback
    lhipjoint lfemur
    lfemur ltibia
    ltibia lfoot
    lfoot ltoes
    rhipjoint rfemur
    rfemur rtibia
    rtibia rfoot
    rfoot rtoes
    lowerback upperback
    upperback thorax
    thorax lowerneck lclavicle rclavicle
    lowerneck upperneck
    upperneck head
    lclavicle lhumerus
    lhumerus lradius
    lradius lwrist
    lwrist lhand lthumb
    lhand lfingers
    rclavicle rhumerus
    rhumerus rradius
    rradius rwrist
    rwrist rhand rthumb
    rhand rfingers
  end

#!OML:ASF H:\LiuWeirdWalks\Patient Classification 1\Patient 1\Session 1\male.ASF
:FULLY-SPECIFIED
:DEGREES
32
root -0.0297462 16.546 -20.4736 9.96487 9.71823 -4.18789
lowerback 8.05407 5.17529 5.15481
upperback -1.4156 7.4002 -0.464544
thorax -5.26903 3.48749 -4.23386
lowerneck -19.6692 -1.90068 2.65007
upperneck 1.91864 -2.87013 -2.95652
head 3.58247 -1.54787 -1.58284
rclavicle -5.21561e-014 -5.86415e-015
rhumerus -38.0375 17.5417 -98.5127
rradius 42.5833
rwrist -7.37189
rhand -19.6334 2.60339
rfingers 7.12502
rthumb 6.6937 -27.2708
lclavicle -5.21561e-014 -5.86415e-015
lhumerus -40.8593 3.00108 81.5414
lradius 62.1166
lwrist 13.2121
lhand -19.0956 -4.49831
lfingers 7.12502
lthumb 7.21285 25.3588
rfemur 11.8158 -8.51011 26.6298
rtibia 35.1644
rfoot 3.48417 -26.6354
rtoes -7.87639
lfemur -45.5648 0.534439 -13.7608
ltibia 59.4068
lfoot -19.0158 6.14125
ltoes -13.046
33
root -0.00862909 16.6683 -20.2418 9.72961 9.83567 -4.06169
lowerback 7.79672 5.08048 4.93606
upperback -1.56192 7.23966 -0.538989
thorax -5.31102 3.41063 -4.15791
lowerneck -19.3991 -1.99315 2.58228
upperneck 2.47283 -3.00284 -2.53076
head 3.71723 -1.5879 -1.45244
rclavicle -2.23633e-014 -9.59136e-015
rhumerus -38.2512 17.6026 -98.55
rradius 43.04
rwrist -6.32275
rhand -19.8694 3.6586
rfingers 7.12502
rthumb 6.46593 -26.2227
lclavicle -2.23633e-014 -9.59136e-015
lhumerus -40.9147 3.7707 81.3687
lradius 61.9334
lwrist 13.3693
lhand -19.9248 -4.0422
lfingers 7.12502
lthumb 6.41238 25.8407
rfemur 10.7024 -9.65167 25.9477
rtibia 37.4031
rfoot 5.97858 -25.9076
rtoes -5.0972
lfemur -43.432 0.593731 -13.9151
ltibia 57.7474
lfoot -19.085 6.08713
ltoes -13.2491
34
root 0.0140295 16.8034 -20.0095 9.47718 9.84705 -3.93371
lowerback 7.5192 4.97115 4.72382
upperback -1.69502 7.06066 -0.594627
thorax -5.33005 3.32605 -4.06156
lowerneck -19.1335 -2.07457 2.52371
upperneck 3.03706 -3.12473 -2.13011
head 3.85648 -1.62294 -1.33081
rclavicle 1.58344e-014 2.70844e-015
rhumerus -38.3971 17.5756 -98.5297
rradius 43.3872
rwrist -5.42629
rhand -20.0883 4.65826
rfingers 7.12502
rthumb 6.25456 -25.2294
lclavicle 1.58344e-014 2.70844e-015
lhumerus -41.0054 4.36618 81.2858
lradius 61.6941
lwrist 13.7202
lhand -20.8468 -3.54759
lfingers 7.12502
lthumb 5.52229 26.3605
rfemur 9.56476 -10.7771 25.2178
rtibia 39.5494
rfoot 7.8379 -25.4889
rtoes -2.85836
lfemur -41.1245 0.592582 -14.0514
ltibia 55.8328
lfoot -18.9731 6.13218
ltoes -13.5072
35
root 0.0383942 16.9498 -19.7776 9.20671 9.76764 -3.81651
lowerback 7.21512 4.84356 4.53103
upperback -1.80675 6.85954 -0.620901
thorax -5.31382 3.23215 -3.9397
lowerneck -18.8469 -2.13107 2.47454
upperneck 3.56615 -3.21571 -1.76426
head 3.98242 -1.6438 -1.2184
rclavicle -2.44055e-014 3.39114e-014
rhumerus -38.4652 17.4891 -98.4437
rradius 43.6295
rwrist -4.70032
rhand -20.2465 5.49903
rfingers 7.12502
rthumb 6.10179 -24.3931
lclavicle -2.44055e-014 3.39114e-014
lhumerus -41.0946 4.78677 81.2967
lradius 61.3528
lwrist 14.1527
lhand -21.7829 -3.0647
lfingers 7.12502
lthumb 4.61843 26.865
rfemur 8.38367 -11.8868 24.4735
rtibia 41.6403
rfoot 8.9214 -25.4003
rtoes -1.12453
lfemur -38.6847 0.493425 -14.1593
ltibia 53.7372
lfoot -18.6989 6.29454
ltoes -13.8318
36
root 0.0647614 17.1058 -19.546 8.8978 9.56347 -3.74772
lowerback 6.92106 4.71784 4.38825
upperback -1.90562 6.66842 -0.610074
thorax -5.28633 3.14267 -3.8088
lowerneck -18.5233 -2.17649 2.45478
upperneck 4.04279 -3.29702 -1.4372
head 4.08592 -1.66124 -1.12092
rclavicle -2.77056e-015 -7.45443e-015
rhumerus -38.475 17.3448 -98.3037
rradius 43.7683
rwrist -4.21541
rhand -20.3682 6.14746
rfingers 7.12502
rthumb 5.98436 -23.748
lclavicle -2.77056e-015 -7.45443e-015
lhumerus -41.1891 4.99917 81.3977
lradius 60.8936
lwrist 14.5922
lhand -22.6884 -2.60238
lfingers 7.12502
lthumb 3.74403 27.3445
rfemur 7.2236 -12.9253 23.7656
rtibia 43.5446
rfoot 9.23977 -25.6195
rtoes 0.342138
lfemur -36.0959 0.309348 -14.2117
ltibia 51.4448
lfoot -18.2179 6.59592
ltoes -14.2394
37
root 0.0931912 17.2691 -19.3152 8.55941 9.25124 -3.73982
lowerback 6.63277 4.60025 4.31599
upperback -1.99943 6.49698 -0.563241
thorax -5.25048 3.06147 -3.68224
lowerneck -18.1877 -2.19166 2.48102
upperneck 4.47205 -3.34544 -1.15768
head 4.17207 -1.66423 -1.04212
rclavicle 2.74571e-014 -2.48481e-014
rhumerus -38.4505 17.105 -98.1024
rradius 43.8229
rwrist -3.87801
rhand -20.4534 6.55872
rfingers 7.12502
rthumb 5.90209 -23.3391
lclavicle 2.74571e-014 -2.48481e-014
lhumerus -41.2845 4.98829 81.5821
lradius 60.2925
lwrist 14.8943
lhand -23.4289 -2.1936
lfingers 7.12502
lthumb 3.02892 27.7646
rfemur 6.07221 -13.8707 23.1346
rtibia 45.2326
rfoot 8.84164 -26.1636
rtoes 1.56917
lfemur -33.4074 0.0192623 -14.2092
ltibia 49.0164
lfoot -17.4853 7.045
ltoes -14.734
38
root 0.122668 17.4374 -19.0859 8.21345 8.83482 -3.81276
lowerback 6.34576 4.49682 4.32381
upperback -2.09392 6.35366 -0.475926
thorax -5.20899 2.9923 -3.5613
lowerneck -17.8494 -2.20092 2.50855
upperneck 4.89093 -3.38681 -0.882477
head 4.25456 -1.66345 -0.964171
rclavicle 1.91454e-014 3.23025e-014
rhumerus -38.3901 16.8039 -97.8458
rradius 43.8118
rwrist -3.74614
rhand -20.4925 6.73093
rfingers 7.12502
rthumb 5.86433 -23.1679
lclavicle 1.91454e-014 3.23025e-014
lhumerus -41.3748 4.73879 81.872
lradius 59.5923
lwrist 15.2326
lhand -24.0718 -1.82948
lfingers 7.12502
lthumb 2.408 28.1367
rfemur 4.88236 -14.6811 22.6387
rtibia 46.6833
rfoot 8.00118 -26.8953
rtoes 3.06828
lfemur -30.694 -0.349979 -14.149
ltibia 46.5307
lfoot -16.4654 7.63913
ltoes -15.3168
